<?xml version="1.0" standalone="no"?><!DOCTYPE svg PUBLIC "-//W3C//DTD SVG 1.1//EN" "http://www.w3.org/Graphics/SVG/1.1/DTD/svg11.dtd"><svg t="1570769336612" class="icon" viewBox="0 0 1024 1024" version="1.1" xmlns="http://www.w3.org/2000/svg" p-id="5418" xmlns:xlink="http://www.w3.org/1999/xlink" width="128" height="128"><defs><style type="text/css"></style></defs><path d="M831.83 182H706.319v-24c0-16.568-13.432-30-30-30s-30 13.432-30 30v24H373.681v-24c0-16.568-13.431-30-30-30-16.568 0-30 13.432-30 30v24H188.17c-33.231 0-60.17 26.939-60.17 60.17v589.66c0 33.231 26.939 60.17 60.17 60.17h643.66c33.231 0 60.17-26.939 60.17-60.17V242.17c0-33.231-26.939-60.17-60.17-60.17z m-643.828 60.104a0.558 0.558 0 0 1 0.103-0.103l0.065-0.002h125.511v24c0 16.568 13.432 30 30 30 16.569 0 30-13.432 30-30v-24H646.32v24c0 16.568 13.432 30 30 30s30-13.432 30-30v-24h125.51l0.065 0.002a0.558 0.558 0 0 1 0.103 0.103l0.002 0.065V354H188V242.17l0.002-0.066z m643.996 589.792a0.558 0.558 0 0 1-0.103 0.103 1.037 1.037 0 0 1-0.065 0.002H188.17a1.01 1.01 0 0 1-0.065-0.002 0.558 0.558 0 0 1-0.103-0.103 1.037 1.037 0 0 1-0.002-0.065V414h644v417.83l-0.002 0.066z" p-id="5419"></path><path d="M662.329 483.255l-203.16 212.229-96.325-93.061c-11.916-11.513-30.909-11.183-42.42 0.731-11.512 11.916-11.185 30.908 0.731 42.421l118 114a29.996 29.996 0 0 0 42.516-0.83l224-234c11.457-11.969 11.043-30.959-0.926-42.417s-30.96-11.041-42.416 0.927z" p-id="5420"></path></svg>