<?xml version="1.0" encoding="UTF-8" standalone="no"?><!DOCTYPE svg PUBLIC "-//W3C//DTD SVG 1.1//EN" "http://www.w3.org/Graphics/SVG/1.1/DTD/svg11.dtd"><svg width="100%" height="100%" viewBox="0 0 73 73" version="1.1" xmlns="http://www.w3.org/2000/svg" xmlns:xlink="http://www.w3.org/1999/xlink" xml:space="preserve" xmlns:serif="http://www.serif.com/" style="fill-rule:evenodd;clip-rule:evenodd;stroke-linejoin:round;stroke-miterlimit:2;"><g><circle cx="36.375" cy="36.375" r="36.375" style="fill:#fff;"/><g><path d="M33.274,27.198l13.058,4.302c4.046,1.331 8.45,-0.922 9.781,-4.968c1.332,-4.045 -0.922,-8.449 -4.967,-9.78l-13.007,-4.302c-4.097,-1.331 -8.501,0.871 -9.832,4.916c-1.331,4.097 0.922,8.501 4.967,9.832Zm10.498,-9.986l6.555,2.151c2.611,0.871 3.994,3.687 3.174,6.248c-0.87,2.611 -3.635,3.994 -6.247,3.175l-6.555,-2.151l3.073,-9.423Zm-11.983,3.073c0.103,-0.358 0.359,-0.666 0.768,-0.819c0.717,-0.308 1.537,0 1.844,0.665c0.358,0.82 1.075,1.434 1.894,1.69l1.434,0.461c0.717,0.256 1.127,1.024 0.871,1.792c-0.256,0.717 -1.024,1.127 -1.792,0.922l-1.434,-0.512c-1.588,-0.512 -2.868,-1.69 -3.534,-3.175c-0.153,-0.307 -0.204,-0.666 -0.051,-1.024Z" style="fill:#1663cf;fill-rule:nonzero;"/><path d="M60.005,43.534c-0.922,-2.202 -3.329,-3.995 -6.606,-3.073c-0.461,0.154 -1.741,0.461 -3.226,0.871c-0.512,-1.844 -1.434,-3.636 -3.021,-4.353c-2.049,-0.922 -4.916,-0.819 -7.426,-0.717c0,0 -2.355,0.051 -3.226,0.051c-1.741,0 -3.379,0 -4.762,0.256c-2.714,0.41 -8.193,3.431 -11.676,5.992c-1.177,0.87 -3.226,2.662 -5.018,4.199c-0.666,0.614 -1.331,1.126 -1.792,1.536c-1.127,0.973 -1.28,2.663 -0.308,3.789l6.35,7.63c0.461,0.564 1.178,0.922 1.895,0.973l0.154,0c0.665,0 1.331,-0.256 1.843,-0.717l3.585,-3.328c3.789,1.024 7.886,1.69 10.702,1.741l0.103,0c4.148,0 10.907,-2.663 20.125,-7.886c2.458,-1.434 3.379,-4.353 2.304,-6.964Zm-38.509,13.058l-5.121,-6.145c0.359,-0.308 0.717,-0.615 1.076,-0.973c0.409,-0.359 0.819,-0.717 1.229,-1.076l5.069,6.043l-2.253,2.151Zm34.463,-9.32c-10.753,6.145 -15.874,7.425 -18.281,7.425l-0.051,0c-2.509,-0.051 -6.35,-0.666 -9.781,-1.588c-0.154,-0.051 -0.358,-0.051 -0.512,-0.102l-5.838,-6.913c0.308,-0.256 0.564,-0.461 0.768,-0.615c3.534,-2.611 8.399,-5.069 10.037,-5.325c1.076,-0.154 2.612,-0.205 4.199,-0.205c0.871,0 3.329,-0.051 3.329,-0.051c1.997,-0.103 4.506,-0.154 5.735,0.409c0.256,0.154 0.666,0.82 0.973,1.946c-1.229,0.308 -2.355,0.615 -3.021,0.82c-1.28,0.307 -4.302,0.409 -6.811,0.307l-0.461,0c-1.024,-0.051 -1.843,0.717 -1.894,1.741c-0.052,1.024 0.716,1.843 1.741,1.895l0.461,0c2.458,0.102 5.991,0 7.834,-0.41c2.817,-0.614 4.763,-1.229 4.865,-1.229c0,0 4.558,-1.28 5.07,-1.383c1.434,-0.409 2.048,0.41 2.253,0.973c0.358,0.717 0.256,1.793 -0.615,2.305Z" style="fill:#1663cf;fill-rule:nonzero;"/></g></g></svg>