<?xml version="1.0" encoding="UTF-8" standalone="no"?><!DOCTYPE svg PUBLIC "-//W3C//DTD SVG 1.1//EN" "http://www.w3.org/Graphics/SVG/1.1/DTD/svg11.dtd"><svg width="100%" height="100%" viewBox="0 0 196 136" version="1.1" xmlns="http://www.w3.org/2000/svg" xmlns:xlink="http://www.w3.org/1999/xlink" xml:space="preserve" xmlns:serif="http://www.serif.com/" style="fill-rule:evenodd;clip-rule:evenodd;stroke-linejoin:round;stroke-miterlimit:2;"><g><g><circle cx="97.688" cy="43.125" r="36.375" style="fill:#1663cf;"/><g><path d="M94.587,33.948l13.058,4.302c4.045,1.331 8.449,-0.922 9.781,-4.968c1.331,-4.045 -0.922,-8.449 -4.968,-9.78l-13.006,-4.302c-4.097,-1.331 -8.501,0.871 -9.832,4.916c-1.332,4.097 0.921,8.501 4.967,9.832Zm10.497,-9.986l6.555,2.151c2.612,0.871 3.994,3.687 3.175,6.248c-0.871,2.611 -3.636,3.994 -6.247,3.175l-6.555,-2.151l3.072,-9.423Zm-11.982,3.073c0.102,-0.358 0.358,-0.666 0.768,-0.819c0.717,-0.308 1.536,0 1.843,0.665c0.359,0.82 1.076,1.434 1.895,1.69l1.434,0.461c0.717,0.256 1.126,1.024 0.87,1.792c-0.256,0.717 -1.024,1.127 -1.792,0.922l-1.434,-0.512c-1.587,-0.512 -2.867,-1.69 -3.533,-3.175c-0.154,-0.307 -0.205,-0.666 -0.051,-1.024Z" style="fill:#fff;fill-rule:nonzero;"/><path d="M121.317,50.284c-0.921,-2.202 -3.328,-3.995 -6.605,-3.073c-0.461,0.154 -1.741,0.461 -3.227,0.871c-0.512,-1.844 -1.433,-3.636 -3.021,-4.353c-2.048,-0.922 -4.916,-0.819 -7.425,-0.717c0,0 -2.356,0.051 -3.226,0.051c-1.741,0 -3.38,0 -4.763,0.256c-2.714,0.41 -8.193,3.431 -11.675,5.992c-1.178,0.87 -3.226,2.662 -5.018,4.199c-0.666,0.614 -1.332,1.126 -1.793,1.536c-1.126,0.973 -1.28,2.663 -0.307,3.789l6.35,7.63c0.461,0.564 1.178,0.922 1.895,0.973l0.153,0c0.666,0 1.332,-0.256 1.844,-0.717l3.584,-3.328c3.79,1.024 7.886,1.69 10.703,1.741l0.102,0c4.148,0 10.908,-2.663 20.125,-7.886c2.458,-1.434 3.38,-4.353 2.304,-6.964Zm-38.508,13.058l-5.121,-6.145c0.358,-0.308 0.717,-0.615 1.075,-0.973c0.41,-0.359 0.82,-0.717 1.229,-1.076l5.07,6.043l-2.253,2.151Zm34.463,-9.32c-10.754,6.145 -15.875,7.425 -18.281,7.425l-0.052,0c-2.509,-0.051 -6.349,-0.666 -9.78,-1.588c-0.154,-0.051 -0.359,-0.051 -0.512,-0.102l-5.838,-6.913c0.307,-0.256 0.563,-0.461 0.768,-0.615c3.533,-2.611 8.398,-5.069 10.037,-5.325c1.075,-0.154 2.611,-0.205 4.199,-0.205c0.87,0 3.328,-0.051 3.328,-0.051c1.998,-0.103 4.507,-0.154 5.736,0.409c0.256,0.154 0.665,0.82 0.973,1.946c-1.229,0.308 -2.356,0.615 -3.022,0.82c-1.28,0.307 -4.301,0.409 -6.81,0.307l-0.461,0c-1.024,-0.051 -1.844,0.717 -1.895,1.741c-0.051,1.024 0.717,1.843 1.741,1.895l0.461,0c2.458,0.102 5.991,0 7.835,-0.41c2.816,-0.614 4.762,-1.229 4.865,-1.229c0,0 4.557,-1.28 5.069,-1.383c1.434,-0.409 2.049,0.41 2.254,0.973c0.358,0.717 0.256,1.793 -0.615,2.305Z" style="fill:#fff;fill-rule:nonzero;"/></g></g><g><path d="M28.024,102.699l1.953,0c1.363,-0.01 2.589,-0.015 3.677,-0.015c3.815,0 6.666,0.947 8.553,2.841c1.887,1.894 2.83,4.621 2.83,8.18c0,2.542 -0.473,4.731 -1.419,6.565c-0.946,1.834 -2.291,3.235 -4.036,4.202c-1.745,0.967 -3.797,1.451 -6.157,1.451l-5.356,0l-2.35,0l0,-23.224l2.305,0Zm5.706,19.562c1.933,0 3.446,-0.654 4.54,-1.96c1.093,-1.306 1.64,-3.321 1.64,-6.043c0,-1.947 -0.241,-3.499 -0.725,-4.656c-0.483,-1.158 -1.213,-1.99 -2.189,-2.496c-0.977,-0.507 -2.243,-0.76 -3.8,-0.76c-0.539,0 -1.195,0.076 -1.968,0.228l-0.61,0.092l0,15.343c0.691,0.168 1.729,0.252 3.112,0.252Z" style="fill:#1663cf;fill-rule:nonzero;"/><path d="M48.028,117.062c0,-1.814 0.366,-3.363 1.098,-4.647c0.733,-1.283 1.75,-2.255 3.052,-2.914c1.302,-0.659 2.798,-0.989 4.486,-0.989c1.923,0 3.505,0.394 4.746,1.182c1.241,0.788 2.144,1.844 2.708,3.167c0.565,1.324 0.847,2.818 0.847,4.483c0,1.824 -0.366,3.38 -1.099,4.669c-0.732,1.288 -1.749,2.265 -3.051,2.929c-1.302,0.664 -2.793,0.996 -4.471,0.996c-1.933,0 -3.52,-0.397 -4.761,-1.19c-1.241,-0.793 -2.144,-1.856 -2.708,-3.189c-0.565,-1.333 -0.847,-2.832 -0.847,-4.497Zm12.008,0.295c0,-1.56 -0.289,-2.86 -0.869,-3.899c-0.58,-1.039 -1.46,-1.558 -2.64,-1.558c-2.38,0 -3.571,1.697 -3.571,5.092c0,1.024 0.125,1.958 0.374,2.802c0.249,0.844 0.641,1.519 1.175,2.026c0.534,0.507 1.203,0.761 2.007,0.761c2.35,0 3.524,-1.741 3.524,-5.224Z" style="fill:#1663cf;fill-rule:nonzero;"/><path d="M68.673,121.07c0.193,0.153 0.554,0.339 1.083,0.557c0.529,0.219 1.142,0.41 1.839,0.573c0.697,0.162 1.386,0.244 2.068,0.244c0.946,0 1.637,-0.109 2.075,-0.325c0.437,-0.217 0.656,-0.581 0.656,-1.094c0,-0.472 -0.303,-0.901 -0.908,-1.285c-0.605,-0.384 -1.559,-0.783 -2.861,-1.196c-1.546,-0.493 -2.663,-1.163 -3.349,-2.01c-0.687,-0.847 -1.03,-1.891 -1.03,-3.132c0,-1.044 0.297,-1.932 0.892,-2.666c0.595,-0.734 1.422,-1.288 2.48,-1.662c1.058,-0.375 2.273,-0.562 3.647,-0.562c1.109,0 2.1,0.107 2.975,0.321c0.875,0.213 1.516,0.437 1.923,0.671l-0.519,3.668c-0.346,-0.317 -0.903,-0.593 -1.671,-0.828c-0.768,-0.235 -1.513,-0.353 -2.235,-0.353c-1.038,0 -1.788,0.106 -2.251,0.318c-0.463,0.212 -0.694,0.559 -0.694,1.042c0,0.344 0.107,0.637 0.32,0.879c0.214,0.241 0.557,0.472 1.03,0.694c0.473,0.222 1.157,0.48 2.053,0.775c1.19,0.395 2.138,0.825 2.845,1.293c0.707,0.468 1.224,1.005 1.549,1.611c0.326,0.605 0.488,1.327 0.488,2.164c0,1.704 -0.602,2.992 -1.808,3.863c-1.205,0.872 -2.876,1.308 -5.012,1.308c-0.804,0 -1.613,-0.065 -2.426,-0.195c-0.814,-0.131 -1.544,-0.298 -2.19,-0.503c-0.646,-0.206 -1.132,-0.413 -1.457,-0.624l0.488,-3.546Z" style="fill:#1663cf;fill-rule:nonzero;"/><path d="M99.099,115.024c0,1.398 -0.056,2.437 -0.168,3.117l-10.284,0c0.091,1.434 0.541,2.502 1.35,3.204c0.809,0.702 1.905,1.053 3.288,1.053c0.662,0 1.463,-0.089 2.404,-0.267c0.941,-0.178 1.63,-0.389 2.067,-0.633l0.778,2.701c-0.6,0.488 -1.5,0.9 -2.7,1.235c-1.201,0.336 -2.452,0.504 -3.754,0.504c-1.75,0 -3.24,-0.347 -4.471,-1.041c-1.231,-0.694 -2.162,-1.697 -2.792,-3.011c-0.631,-1.313 -0.946,-2.887 -0.946,-4.72c0,-1.666 0.33,-3.152 0.992,-4.461c0.661,-1.308 1.625,-2.334 2.891,-3.078c1.267,-0.743 2.775,-1.115 4.524,-1.115c1.262,0 2.401,0.219 3.418,0.656c1.017,0.437 1.834,1.141 2.449,2.112c0.616,0.971 0.934,2.219 0.954,3.744Zm-4.425,0.477c0.01,-0.136 0.015,-0.334 0.015,-0.596c0,-0.984 -0.208,-1.73 -0.625,-2.24c-0.418,-0.51 -1.094,-0.765 -2.03,-0.765c-0.936,0 -1.681,0.273 -2.235,0.819c-0.555,0.546 -0.913,1.473 -1.076,2.782l5.951,0Z" style="fill:#1663cf;fill-rule:nonzero;"/><path d="M117.608,102.699l0,3.723l-9.308,0l0,5.768l7.141,0l0,3.677l-7.141,0l0,6.226l10.3,0l0,3.83l-15.152,0l0,-23.224l14.16,0Z" style="fill:#1663cf;fill-rule:nonzero;"/><path d="M128.976,108.512c1.688,0 3.039,0.18 4.051,0.54c1.012,0.36 1.767,0.986 2.266,1.879c0.498,0.892 0.747,2.142 0.747,3.75l0,11.257l-2.777,0c-0.457,0 -0.803,-0.031 -1.037,-0.092c-0.234,-0.061 -0.417,-0.203 -0.55,-0.427c-0.132,-0.223 -0.198,-0.579 -0.198,-1.068l0,-0.122c-0.529,0.488 -1.18,0.895 -1.953,1.221c-0.773,0.325 -1.633,0.488 -2.579,0.488c-1.119,0 -2.108,-0.242 -2.968,-0.725c-0.859,-0.483 -1.525,-1.154 -1.998,-2.014c-0.474,-0.86 -0.71,-1.834 -0.71,-2.922c0,-1.017 0.262,-1.887 0.786,-2.609c0.524,-0.723 1.274,-1.302 2.25,-1.74c1.516,-0.671 3.841,-1.007 6.974,-1.007l0,-0.917c0,-0.544 -0.084,-0.943 -0.252,-1.198c-0.168,-0.255 -0.488,-0.429 -0.961,-0.522c-0.473,-0.093 -1.218,-0.14 -2.236,-0.14c-0.488,0 -1.231,0.105 -2.228,0.316c-0.996,0.211 -1.851,0.454 -2.563,0.73l-1.053,-2.862c0.407,-0.244 0.997,-0.508 1.77,-0.793c0.773,-0.285 1.623,-0.527 2.548,-0.725c0.926,-0.198 1.816,-0.298 2.671,-0.298Zm-0.397,14.206c0.509,0 1.043,-0.104 1.602,-0.313c0.56,-0.208 0.926,-0.424 1.099,-0.648l0,-4.15c-0.58,0 -1.234,0.063 -1.961,0.19c-0.727,0.127 -1.269,0.272 -1.625,0.435c-0.458,0.173 -0.824,0.407 -1.099,0.702c-0.274,0.295 -0.412,0.733 -0.412,1.312c0,0.814 0.222,1.43 0.664,1.847c0.443,0.417 1.02,0.625 1.732,0.625Z" style="fill:#1663cf;fill-rule:nonzero;"/><path d="M140.618,121.07c0.193,0.153 0.555,0.339 1.083,0.557c0.529,0.219 1.142,0.41 1.839,0.573c0.697,0.162 1.386,0.244 2.068,0.244c0.946,0 1.638,-0.109 2.075,-0.325c0.437,-0.217 0.656,-0.581 0.656,-1.094c0,-0.472 -0.303,-0.901 -0.908,-1.285c-0.605,-0.384 -1.559,-0.783 -2.861,-1.196c-1.546,-0.493 -2.663,-1.163 -3.349,-2.01c-0.687,-0.847 -1.03,-1.891 -1.03,-3.132c0,-1.044 0.297,-1.932 0.893,-2.666c0.595,-0.734 1.421,-1.288 2.479,-1.662c1.058,-0.375 2.274,-0.562 3.647,-0.562c1.109,0 2.101,0.107 2.975,0.321c0.875,0.213 1.516,0.437 1.923,0.671l-0.519,3.668c-0.346,-0.317 -0.903,-0.593 -1.671,-0.828c-0.768,-0.235 -1.513,-0.353 -2.235,-0.353c-1.038,0 -1.788,0.106 -2.251,0.318c-0.463,0.212 -0.694,0.559 -0.694,1.042c0,0.344 0.107,0.637 0.32,0.879c0.214,0.241 0.557,0.472 1.03,0.694c0.473,0.222 1.158,0.48 2.053,0.775c1.19,0.395 2.138,0.825 2.845,1.293c0.707,0.468 1.224,1.005 1.549,1.611c0.326,0.605 0.489,1.327 0.489,2.164c0,1.704 -0.603,2.992 -1.809,3.863c-1.205,0.872 -2.876,1.308 -5.012,1.308c-0.804,0 -1.613,-0.065 -2.426,-0.195c-0.814,-0.131 -1.544,-0.298 -2.19,-0.503c-0.646,-0.206 -1.132,-0.413 -1.457,-0.624l0.488,-3.546Z" style="fill:#1663cf;fill-rule:nonzero;"/><path d="M171.044,115.024c0,1.398 -0.056,2.437 -0.168,3.117l-10.284,0c0.091,1.434 0.542,2.502 1.35,3.204c0.809,0.702 1.905,1.053 3.289,1.053c0.661,0 1.462,-0.089 2.403,-0.267c0.941,-0.178 1.63,-0.389 2.067,-0.633l0.779,2.701c-0.601,0.488 -1.501,0.9 -2.701,1.235c-1.201,0.336 -2.452,0.504 -3.754,0.504c-1.75,0 -3.24,-0.347 -4.471,-1.041c-1.231,-0.694 -2.161,-1.697 -2.792,-3.011c-0.631,-1.313 -0.946,-2.887 -0.946,-4.72c0,-1.666 0.33,-3.152 0.992,-4.461c0.661,-1.308 1.625,-2.334 2.891,-3.078c1.267,-0.743 2.775,-1.115 4.524,-1.115c1.262,0 2.401,0.219 3.418,0.656c1.018,0.437 1.834,1.141 2.449,2.112c0.616,0.971 0.934,2.219 0.954,3.744Zm-4.425,0.477c0.01,-0.136 0.015,-0.334 0.015,-0.596c0,-0.984 -0.208,-1.73 -0.625,-2.24c-0.417,-0.51 -1.094,-0.765 -2.03,-0.765c-0.936,0 -1.681,0.273 -2.235,0.819c-0.554,0.546 -0.913,1.473 -1.076,2.782l5.951,0Z" style="fill:#1663cf;fill-rule:nonzero;"/></g></g></svg>